# xmcd
# 
# Track frame offsets:
#     150
#     16677
#     32155
#     42049
#     58030
#     75256
#     88435
#     103161
#     118635
#     130078
#     145605
#     160624
#     181372
#     205559
#     239313
#     250729
#     269077
#     289330
# 
# Disc length: 4320
# 
# Revision: 6
# Processed by: cddbd v1.5.2PL0 Copyright (c) Steve Scherf et al.
# Submitted via: fre:ac v1.0.31
# 
DISCID=f110de12
DTITLE=The Cure - Kiss Me Kiss Me Kiss Me Disc 2
DYEAR=2006
DGENRE=Rock/Pop
TTITLE0=The Kiss [RS Home Demo]
TTITLE1=The Perfect Girl [Demo]
TTITLE2=Like Cockatoos [Demo]
TTITLE3=All I Want [Demo]
TTITLE4=Hot Hot Hot!!! [Demo]
TTITLE5=Shiver And Shake [Demo]
TTITLE6=If Only Tonight We Could Sleep [Demo]
TTITLE7=Just Like Heaven [Demo]
TTITLE8=Hey You! [Demo]
TTITLE9=A Thousand Hours [Alternate Mix]
TTITLE10=Icing Sugar [Alternate Mix]
TTITLE11=One More Time [Alternate Mix]
TTITLE12=How Beautiful You Are [Live Bootleg]
TTITLE13=The Snakepit [Live Bootleg]
TTITLE14=Catch [Live Bootleg]
TTITLE15=Torture [Live Bootleg]
TTITLE16=Fight [Live Bootleg]
TTITLE17=Why Can't I Be You? [Live Bootleg]
EXTD=
EXTT0=
EXTT1=
EXTT2=
EXTT3=
EXTT4=
EXTT5=
EXTT6=
EXTT7=
EXTT8=
EXTT9=
EXTT10=
EXTT11=
EXTT12=
EXTT13=
EXTT14=
EXTT15=
EXTT16=
EXTT17=
PLAYORDER=
